<svg xmlns="http://www.w3.org/2000/svg" viewBox="0 0 500 500"><g id="freepik--background-simple--inject-2"><path d="M410.76,104a210.26,210.26,0,0,0-57.35-40.25C321.79,49,287,41.83,252.13,41.41c-101.79-1.24-109.54,118.34-140.83,135s-88,18.58-90,85.09c-1.24,41.83,8.53,84.84,36,117.43,25.15,29.86,62.1,45,98.5,56.16C196.68,447.61,240,459.92,283,451.46c44.13-8.69,75.13-43.63,111.37-67.24,22.81-14.87,43.29-30.52,57.38-54.38q2.52-4.27,4.76-8.71c18.86-37.07,22.56-79.82,12.16-119.93C459.37,165.2,438.3,130.92,410.76,104Z" style="fill:#92E3A9"></path><path d="M410.76,104a210.26,210.26,0,0,0-57.35-40.25C321.79,49,287,41.83,252.13,41.41c-101.79-1.24-109.54,118.34-140.83,135s-88,18.58-90,85.09c-1.24,41.83,8.53,84.84,36,117.43,25.15,29.86,62.1,45,98.5,56.16C196.68,447.61,240,459.92,283,451.46c44.13-8.69,75.13-43.63,111.37-67.24,22.81-14.87,43.29-30.52,57.38-54.38q2.52-4.27,4.76-8.71c18.86-37.07,22.56-79.82,12.16-119.93C459.37,165.2,438.3,130.92,410.76,104Z" style="fill:#fff;opacity:0.7000000000000001"></path></g><g id="freepik--Clouds--inject-2"><path d="M434.6,107.33c0-.34-.06-.71-.07-1.1-.1-8.36-3.2-14.14-10.77-18.53-14.18-8.24-22.41,0-26.53,7.32s-10.52-4.58-20.59-3.21-9.6,12.36-12.35,18.3-8.69-1.83-16.47-.45-8.23,5.94-9.61,7.77-13.72-2.74-20.58.92a28.58,28.58,0,0,0-10.52,10.52H457.16s1.83-11-4.11-15.09C447.71,110.08,435.63,116,434.6,107.33Z" style="fill:none;stroke:#263238;stroke-linecap:round;stroke-linejoin:round"></path><path d="M365,121a3.65,3.65,0,0,0-1.39.7c-1.93,1.69-1.93,2.9-1.93,2.9" style="fill:none;stroke:#263238;stroke-linecap:round;stroke-linejoin:round"></path><path d="M398.1,106.81c-1.34,2.92-2.52,6.13-5.27,7.41-3.93,1.84-7.61-2.31-11.24-3.25a5.23,5.23,0,0,0-5.75,1.76c-1.64,1.87-1.66,6.1-3.81,7.3a9.93,9.93,0,0,1-4.13.66" style="fill:none;stroke:#263238;stroke-linecap:round;stroke-linejoin:round"></path><path d="M442.76,120.32c-.11-.26-.22-.53-.35-.78-2.88-5.76-9.7-1.13-13.9-2.74-3.72-1.44-2.5-7.33-3-10.41-1-6-8.45-10.49-14.3-9.58a18.16,18.16,0,0,0-11,6.43" style="fill:none;stroke:#263238;stroke-linecap:round;stroke-linejoin:round"></path><path d="M443.94,125.61a25.71,25.71,0,0,0-.5-3" style="fill:none;stroke:#263238;stroke-linecap:round;stroke-linejoin:round"></path><path d="M132.39,137.39a6.1,6.1,0,0,1,0-.77c-.07-5.83-2.24-9.86-7.52-12.93-9.9-5.75-15.64,0-18.52,5.11s-7.34-3.19-14.36-2.24-6.71,8.62-8.62,12.77-6.07-1.27-11.5-.31-5.74,4.15-6.7,5.42-9.58-1.91-14.37.64a20,20,0,0,0-7.34,7.34H148.13s1.27-7.66-2.87-10.53C141.53,139.31,133.1,143.43,132.39,137.39Z" style="fill:none;stroke:#263238;stroke-linecap:round;stroke-linejoin:round"></path><path d="M83.78,146.94a2.61,2.61,0,0,0-1,.49c-1.35,1.19-1.35,2-1.35,2" style="fill:none;stroke:#263238;stroke-linecap:round;stroke-linejoin:round"></path><path d="M106.91,137c-.93,2-1.75,4.27-3.68,5.17-2.74,1.28-5.31-1.61-7.84-2.27a3.64,3.64,0,0,0-4,1.23c-1.14,1.3-1.16,4.26-2.66,5.09a6.83,6.83,0,0,1-2.89.46" style="fill:none;stroke:#263238;stroke-linecap:round;stroke-linejoin:round"></path><path d="M138.08,146.46c-.08-.19-.16-.37-.25-.54-2-4-6.77-.79-9.69-1.92-2.61-1-1.75-5.11-2.1-7.26-.68-4.16-5.9-7.33-10-6.69a12.69,12.69,0,0,0-7.71,4.49" style="fill:none;stroke:#263238;stroke-linecap:round;stroke-linejoin:round"></path><path d="M138.9,150.15a17.11,17.11,0,0,0-.35-2.13" style="fill:none;stroke:#263238;stroke-linecap:round;stroke-linejoin:round"></path></g><g id="freepik--Buldings--inject-2"><g style="opacity:0.30000000000000004"><rect x="125.1" y="253.84" width="7.29" height="6.43" style="fill:none;stroke:#000;stroke-miterlimit:10"></rect><rect x="117.22" y="257.74" width="2.95" height="2.54" style="fill:none;stroke:#000;stroke-miterlimit:10"></rect><polyline points="416.69 294.46 389.06 294.46 389.06 243.42 390.91 243.42 390.91 238.13 326.17 238.13 326.17 243.42 328.41 243.42 328.41 319.34 311.43 319.34 311.43 156.45 253.21 156.45 253.21 279.63 231.92 279.63 231.92 266 237.5 266 237.5 260.23 190.94 260.23 190.94 177.59 193.96 177.59 193.96 173.27 137.45 173.27 137.45 177.59 141.5 177.59 141.5 260.37 96.84 260.37 96.84 319.57 73.39 319.57" style="fill:none;stroke:#000;stroke-miterlimit:10"></polyline><rect x="250.62" y="154.67" width="63.14" height="1.77" style="fill:none;stroke:#000;stroke-miterlimit:10"></rect><rect x="146.56" y="182.4" width="7.11" height="6.67" style="fill:none;stroke:#000;stroke-miterlimit:10"></rect><rect x="156.99" y="182.4" width="7.11" height="6.67" style="fill:none;stroke:#000;stroke-miterlimit:10"></rect><rect x="167.42" y="182.4" width="7.11" height="6.67" style="fill:none;stroke:#000;stroke-miterlimit:10"></rect><rect x="177.85" y="182.4" width="7.11" height="6.67" style="fill:none;stroke:#000;stroke-miterlimit:10"></rect><rect x="146.56" y="192.97" width="7.11" height="6.67" style="fill:none;stroke:#000;stroke-miterlimit:10"></rect><rect x="156.99" y="192.97" width="7.11" height="6.67" style="fill:none;stroke:#000;stroke-miterlimit:10"></rect><rect x="167.42" y="192.97" width="7.11" height="6.67" style="fill:none;stroke:#000;stroke-miterlimit:10"></rect><rect x="177.85" y="192.97" width="7.11" height="6.67" style="fill:none;stroke:#000;stroke-miterlimit:10"></rect><rect x="146.56" y="203.54" width="7.11" height="6.67" style="fill:none;stroke:#000;stroke-miterlimit:10"></rect><rect x="156.99" y="203.54" width="7.11" height="6.67" style="fill:none;stroke:#000;stroke-miterlimit:10"></rect><rect x="167.42" y="203.54" width="7.11" height="6.67" style="fill:none;stroke:#000;stroke-miterlimit:10"></rect><rect x="177.85" y="203.54" width="7.11" height="6.67" style="fill:none;stroke:#000;stroke-miterlimit:10"></rect><rect x="146.56" y="214.11" width="7.11" height="6.67" style="fill:none;stroke:#000;stroke-miterlimit:10"></rect><rect x="156.99" y="214.11" width="7.11" height="6.67" style="fill:none;stroke:#000;stroke-miterlimit:10"></rect><rect x="167.42" y="214.11" width="7.11" height="6.67" style="fill:none;stroke:#000;stroke-miterlimit:10"></rect><rect x="177.85" y="214.11" width="7.11" height="6.67" style="fill:none;stroke:#000;stroke-miterlimit:10"></rect><rect x="146.56" y="224.68" width="7.11" height="6.67" style="fill:none;stroke:#000;stroke-miterlimit:10"></rect><rect x="156.99" y="224.68" width="7.11" height="6.67" style="fill:none;stroke:#000;stroke-miterlimit:10"></rect><rect x="167.42" y="224.68" width="7.11" height="6.67" style="fill:none;stroke:#000;stroke-miterlimit:10"></rect><rect x="177.85" y="224.68" width="7.11" height="6.67" style="fill:none;stroke:#000;stroke-miterlimit:10"></rect><rect x="146.56" y="235.25" width="7.11" height="6.67" style="fill:none;stroke:#000;stroke-miterlimit:10"></rect><rect x="156.99" y="235.25" width="7.11" height="6.67" style="fill:none;stroke:#000;stroke-miterlimit:10"></rect><rect x="167.42" y="235.25" width="7.11" height="6.67" style="fill:none;stroke:#000;stroke-miterlimit:10"></rect><rect x="177.85" y="235.25" width="7.11" height="6.67" style="fill:none;stroke:#000;stroke-miterlimit:10"></rect><rect x="146.56" y="245.82" width="7.11" height="6.67" style="fill:none;stroke:#000;stroke-miterlimit:10"></rect><rect x="156.99" y="245.82" width="7.11" height="6.67" style="fill:none;stroke:#000;stroke-miterlimit:10"></rect><rect x="167.42" y="245.82" width="7.11" height="6.67" style="fill:none;stroke:#000;stroke-miterlimit:10"></rect><rect x="177.85" y="245.82" width="7.11" height="6.67" style="fill:none;stroke:#000;stroke-miterlimit:10"></rect><rect x="146.56" y="256.39" width="7.11" height="6.67" style="fill:none;stroke:#000;stroke-miterlimit:10"></rect><rect x="156.99" y="256.39" width="7.11" height="6.67" style="fill:none;stroke:#000;stroke-miterlimit:10"></rect><rect x="167.42" y="256.39" width="7.11" height="6.67" style="fill:none;stroke:#000;stroke-miterlimit:10"></rect><rect x="177.85" y="256.39" width="7.11" height="6.67" style="fill:none;stroke:#000;stroke-miterlimit:10"></rect><rect x="146.56" y="266.06" width="7.11" height="6.67" style="fill:none;stroke:#000;stroke-miterlimit:10"></rect><rect x="156.99" y="266.06" width="7.11" height="6.67" style="fill:none;stroke:#000;stroke-miterlimit:10"></rect><rect x="167.42" y="266.06" width="7.11" height="6.67" style="fill:none;stroke:#000;stroke-miterlimit:10"></rect><rect x="177.85" y="266.06" width="7.11" height="6.67" style="fill:none;stroke:#000;stroke-miterlimit:10"></rect><rect x="146.56" y="276.63" width="7.11" height="6.67" style="fill:none;stroke:#000;stroke-miterlimit:10"></rect><rect x="156.99" y="276.63" width="7.11" height="6.67" style="fill:none;stroke:#000;stroke-miterlimit:10"></rect><rect x="167.42" y="276.63" width="7.11" height="6.67" style="fill:none;stroke:#000;stroke-miterlimit:10"></rect><rect x="177.85" y="276.63" width="7.11" height="6.67" style="fill:none;stroke:#000;stroke-miterlimit:10"></rect><rect x="146.56" y="287.2" width="7.11" height="6.67" style="fill:none;stroke:#000;stroke-miterlimit:10"></rect><rect x="156.99" y="287.2" width="7.11" height="6.67" style="fill:none;stroke:#000;stroke-miterlimit:10"></rect><rect x="167.42" y="287.2" width="7.11" height="6.67" style="fill:none;stroke:#000;stroke-miterlimit:10"></rect><rect x="177.85" y="287.2" width="7.11" height="6.67" style="fill:none;stroke:#000;stroke-miterlimit:10"></rect><rect x="146.56" y="297.77" width="7.11" height="6.67" style="fill:none;stroke:#000;stroke-miterlimit:10"></rect><rect x="156.99" y="297.77" width="7.11" height="6.67" style="fill:none;stroke:#000;stroke-miterlimit:10"></rect><rect x="167.42" y="297.77" width="7.11" height="6.67" style="fill:none;stroke:#000;stroke-miterlimit:10"></rect><rect x="177.85" y="297.77" width="7.11" height="6.67" style="fill:none;stroke:#000;stroke-miterlimit:10"></rect><rect x="146.56" y="308.34" width="7.11" height="6.67" style="fill:none;stroke:#000;stroke-miterlimit:10"></rect><rect x="156.99" y="308.34" width="7.11" height="6.67" style="fill:none;stroke:#000;stroke-miterlimit:10"></rect><rect x="167.42" y="308.34" width="7.11" height="6.67" style="fill:none;stroke:#000;stroke-miterlimit:10"></rect><rect x="177.85" y="308.34" width="7.11" height="6.67" style="fill:none;stroke:#000;stroke-miterlimit:10"></rect><rect x="146.56" y="318.91" width="7.11" height="6.67" style="fill:none;stroke:#000;stroke-miterlimit:10"></rect><rect x="156.99" y="318.91" width="7.11" height="6.67" style="fill:none;stroke:#000;stroke-miterlimit:10"></rect><rect x="167.42" y="318.91" width="7.11" height="6.67" style="fill:none;stroke:#000;stroke-miterlimit:10"></rect><rect x="177.85" y="318.91" width="7.11" height="6.67" style="fill:none;stroke:#000;stroke-miterlimit:10"></rect><rect x="146.56" y="329.48" width="7.11" height="6.67" style="fill:none;stroke:#000;stroke-miterlimit:10"></rect><rect x="156.99" y="329.48" width="7.11" height="6.67" style="fill:none;stroke:#000;stroke-miterlimit:10"></rect><rect x="167.42" y="329.48" width="7.11" height="6.67" style="fill:none;stroke:#000;stroke-miterlimit:10"></rect><rect x="177.85" y="329.48" width="7.11" height="6.67" style="fill:none;stroke:#000;stroke-miterlimit:10"></rect><rect x="146.56" y="340.05" width="7.11" height="6.67" style="fill:none;stroke:#000;stroke-miterlimit:10"></rect><rect x="156.99" y="340.05" width="7.11" height="6.67" style="fill:none;stroke:#000;stroke-miterlimit:10"></rect><rect x="167.42" y="340.05" width="7.11" height="6.67" style="fill:none;stroke:#000;stroke-miterlimit:10"></rect><rect x="177.85" y="340.05" width="7.11" height="6.67" style="fill:none;stroke:#000;stroke-miterlimit:10"></rect><rect x="187.3" y="266.06" width="7.11" height="6.67" style="fill:none;stroke:#000;stroke-miterlimit:10"></rect><rect x="197.73" y="266.06" width="7.11" height="6.67" style="fill:none;stroke:#000;stroke-miterlimit:10"></rect><rect x="208.16" y="266.06" width="7.11" height="6.67" style="fill:none;stroke:#000;stroke-miterlimit:10"></rect><rect x="218.59" y="266.06" width="7.11" height="6.67" style="fill:none;stroke:#000;stroke-miterlimit:10"></rect><rect x="187.3" y="276.63" width="7.11" height="6.67" style="fill:none;stroke:#000;stroke-miterlimit:10"></rect><rect x="197.73" y="276.63" width="7.11" height="6.67" style="fill:none;stroke:#000;stroke-miterlimit:10"></rect><rect x="208.16" y="276.63" width="7.11" height="6.67" style="fill:none;stroke:#000;stroke-miterlimit:10"></rect><rect x="218.59" y="276.63" width="7.11" height="6.67" style="fill:none;stroke:#000;stroke-miterlimit:10"></rect><rect x="187.3" y="287.2" width="7.11" height="6.67" style="fill:none;stroke:#000;stroke-miterlimit:10"></rect><rect x="197.73" y="287.2" width="7.11" height="6.67" style="fill:none;stroke:#000;stroke-miterlimit:10"></rect><rect x="208.16" y="287.2" width="7.11" height="6.67" style="fill:none;stroke:#000;stroke-miterlimit:10"></rect><rect x="218.59" y="287.2" width="7.11" height="6.67" style="fill:none;stroke:#000;stroke-miterlimit:10"></rect><rect x="187.3" y="297.77" width="7.11" height="6.67" style="fill:none;stroke:#000;stroke-miterlimit:10"></rect><rect x="197.73" y="297.77" width="7.11" height="6.67" style="fill:none;stroke:#000;stroke-miterlimit:10"></rect><rect x="208.16" y="297.77" width="7.11" height="6.67" style="fill:none;stroke:#000;stroke-miterlimit:10"></rect><rect x="218.59" y="297.77" width="7.11" height="6.67" style="fill:none;stroke:#000;stroke-miterlimit:10"></rect><rect x="187.3" y="308.34" width="7.11" height="6.67" style="fill:none;stroke:#000;stroke-miterlimit:10"></rect><rect x="197.73" y="308.34" width="7.11" height="6.67" style="fill:none;stroke:#000;stroke-miterlimit:10"></rect><rect x="208.16" y="308.34" width="7.11" height="6.67" style="fill:none;stroke:#000;stroke-miterlimit:10"></rect><rect x="218.59" y="308.34" width="7.11" height="6.67" style="fill:none;stroke:#000;stroke-miterlimit:10"></rect><rect x="187.3" y="318.91" width="7.11" height="6.67" style="fill:none;stroke:#000;stroke-miterlimit:10"></rect><rect x="197.73" y="318.91" width="7.11" height="6.67" style="fill:none;stroke:#000;stroke-miterlimit:10"></rect><rect x="208.16" y="318.91" width="7.11" height="6.67" style="fill:none;stroke:#000;stroke-miterlimit:10"></rect><rect x="218.59" y="318.91" width="7.11" height="6.67" style="fill:none;stroke:#000;stroke-miterlimit:10"></rect><rect x="187.3" y="329.48" width="7.11" height="6.67" style="fill:none;stroke:#000;stroke-miterlimit:10"></rect><rect x="197.73" y="329.48" width="7.11" height="6.67" style="fill:none;stroke:#000;stroke-miterlimit:10"></rect><rect x="208.16" y="329.48" width="7.11" height="6.67" style="fill:none;stroke:#000;stroke-miterlimit:10"></rect><rect x="218.59" y="329.48" width="7.11" height="6.67" style="fill:none;stroke:#000;stroke-miterlimit:10"></rect><rect x="187.3" y="340.05" width="7.11" height="6.67" style="fill:none;stroke:#000;stroke-miterlimit:10"></rect><rect x="197.73" y="340.05" width="7.11" height="6.67" style="fill:none;stroke:#000;stroke-miterlimit:10"></rect><rect x="208.16" y="340.05" width="7.11" height="6.67" style="fill:none;stroke:#000;stroke-miterlimit:10"></rect><rect x="218.59" y="340.05" width="7.11" height="6.67" style="fill:none;stroke:#000;stroke-miterlimit:10"></rect><rect x="105.25" y="266.06" width="7.11" height="6.67" style="fill:none;stroke:#000;stroke-miterlimit:10"></rect><rect x="115.68" y="266.06" width="7.11" height="6.67" style="fill:none;stroke:#000;stroke-miterlimit:10"></rect><rect x="126.11" y="266.06" width="7.11" height="6.67" style="fill:none;stroke:#000;stroke-miterlimit:10"></rect><rect x="136.54" y="266.06" width="7.11" height="6.67" style="fill:none;stroke:#000;stroke-miterlimit:10"></rect><rect x="105.25" y="276.63" width="7.11" height="6.67" style="fill:none;stroke:#000;stroke-miterlimit:10"></rect><rect x="115.68" y="276.63" width="7.11" height="6.67" style="fill:none;stroke:#000;stroke-miterlimit:10"></rect><rect x="126.11" y="276.63" width="7.11" height="6.67" style="fill:none;stroke:#000;stroke-miterlimit:10"></rect><rect x="136.54" y="276.63" width="7.11" height="6.67" style="fill:none;stroke:#000;stroke-miterlimit:10"></rect><rect x="105.25" y="287.2" width="7.11" height="6.67" style="fill:none;stroke:#000;stroke-miterlimit:10"></rect><rect x="115.68" y="287.2" width="7.11" height="6.67" style="fill:none;stroke:#000;stroke-miterlimit:10"></rect><rect x="126.11" y="287.2" width="7.11" height="6.67" style="fill:none;stroke:#000;stroke-miterlimit:10"></rect><rect x="136.54" y="287.2" width="7.11" height="6.67" style="fill:none;stroke:#000;stroke-miterlimit:10"></rect><rect x="105.25" y="297.77" width="7.11" height="6.67" style="fill:none;stroke:#000;stroke-miterlimit:10"></rect><rect x="115.68" y="297.77" width="7.11" height="6.67" style="fill:none;stroke:#000;stroke-miterlimit:10"></rect><rect x="126.11" y="297.77" width="7.11" height="6.67" style="fill:none;stroke:#000;stroke-miterlimit:10"></rect><rect x="136.54" y="297.77" width="7.11" height="6.67" style="fill:none;stroke:#000;stroke-miterlimit:10"></rect><rect x="105.25" y="308.34" width="7.11" height="6.67" style="fill:none;stroke:#000;stroke-miterlimit:10"></rect><rect x="115.68" y="308.34" width="7.11" height="6.67" style="fill:none;stroke:#000;stroke-miterlimit:10"></rect><rect x="126.11" y="308.34" width="7.11" height="6.67" style="fill:none;stroke:#000;stroke-miterlimit:10"></rect><rect x="136.54" y="308.34" width="7.11" height="6.67" style="fill:none;stroke:#000;stroke-miterlimit:10"></rect><rect x="105.25" y="318.91" width="7.11" height="6.67" style="fill:none;stroke:#000;stroke-miterlimit:10"></rect><rect x="115.68" y="318.91" width="7.11" height="6.67" style="fill:none;stroke:#000;stroke-miterlimit:10"></rect><rect x="126.11" y="318.91" width="7.11" height="6.67" style="fill:none;stroke:#000;stroke-miterlimit:10"></rect><rect x="136.54" y="318.91" width="7.11" height="6.67" style="fill:none;stroke:#000;stroke-miterlimit:10"></rect><rect x="105.25" y="329.48" width="7.11" height="6.67" style="fill:none;stroke:#000;stroke-miterlimit:10"></rect><rect x="115.68" y="329.48" width="7.11" height="6.67" style="fill:none;stroke:#000;stroke-miterlimit:10"></rect><rect x="126.11" y="329.48" width="7.11" height="6.67" style="fill:none;stroke:#000;stroke-miterlimit:10"></rect><rect x="136.54" y="329.48" width="7.11" height="6.67" style="fill:none;stroke:#000;stroke-miterlimit:10"></rect><rect x="105.25" y="340.05" width="7.11" height="6.67" style="fill:none;stroke:#000;stroke-miterlimit:10"></rect><rect x="115.68" y="340.05" width="7.11" height="6.67" style="fill:none;stroke:#000;stroke-miterlimit:10"></rect><rect x="126.11" y="340.05" width="7.11" height="6.67" style="fill:none;stroke:#000;stroke-miterlimit:10"></rect><rect x="136.54" y="340.05" width="7.11" height="6.67" style="fill:none;stroke:#000;stroke-miterlimit:10"></rect><rect x="338.24" y="245.34" width="7.11" height="6.67" style="fill:none;stroke:#000;stroke-miterlimit:10"></rect><rect x="348.67" y="245.34" width="7.11" height="6.67" style="fill:none;stroke:#000;stroke-miterlimit:10"></rect><rect x="359.1" y="245.34" width="7.11" height="6.67" style="fill:none;stroke:#000;stroke-miterlimit:10"></rect><rect x="369.53" y="245.34" width="7.11" height="6.67" style="fill:none;stroke:#000;stroke-miterlimit:10"></rect><rect x="338.24" y="255.91" width="7.11" height="6.67" style="fill:none;stroke:#000;stroke-miterlimit:10"></rect><rect x="348.67" y="255.91" width="7.11" height="6.67" style="fill:none;stroke:#000;stroke-miterlimit:10"></rect><rect x="359.1" y="255.91" width="7.11" height="6.67" style="fill:none;stroke:#000;stroke-miterlimit:10"></rect><rect x="369.53" y="255.91" width="7.11" height="6.67" style="fill:none;stroke:#000;stroke-miterlimit:10"></rect><rect x="338.24" y="266.48" width="7.11" height="6.67" style="fill:none;stroke:#000;stroke-miterlimit:10"></rect><rect x="348.67" y="266.48" width="7.11" height="6.67" style="fill:none;stroke:#000;stroke-miterlimit:10"></rect><rect x="359.1" y="266.48" width="7.11" height="6.67" style="fill:none;stroke:#000;stroke-miterlimit:10"></rect><rect x="369.53" y="266.48" width="7.11" height="6.67" style="fill:none;stroke:#000;stroke-miterlimit:10"></rect><rect x="338.24" y="277.05" width="7.11" height="6.67" style="fill:none;stroke:#000;stroke-miterlimit:10"></rect><rect x="348.67" y="277.05" width="7.11" height="6.67" style="fill:none;stroke:#000;stroke-miterlimit:10"></rect><rect x="359.1" y="277.05" width="7.11" height="6.67" style="fill:none;stroke:#000;stroke-miterlimit:10"></rect><rect x="369.53" y="277.05" width="7.11" height="6.67" style="fill:none;stroke:#000;stroke-miterlimit:10"></rect><rect x="338.24" y="287.62" width="7.11" height="6.67" style="fill:none;stroke:#000;stroke-miterlimit:10"></rect><rect x="348.67" y="287.62" width="7.11" height="6.67" style="fill:none;stroke:#000;stroke-miterlimit:10"></rect><rect x="359.1" y="287.62" width="7.11" height="6.67" style="fill:none;stroke:#000;stroke-miterlimit:10"></rect><rect x="369.53" y="287.62" width="7.11" height="6.67" style="fill:none;stroke:#000;stroke-miterlimit:10"></rect><rect x="338.24" y="298.19" width="7.11" height="6.67" style="fill:none;stroke:#000;stroke-miterlimit:10"></rect><rect x="348.67" y="298.19" width="7.11" height="6.67" style="fill:none;stroke:#000;stroke-miterlimit:10"></rect><rect x="359.1" y="298.19" width="7.11" height="6.67" style="fill:none;stroke:#000;stroke-miterlimit:10"></rect><rect x="369.53" y="298.19" width="7.11" height="6.67" style="fill:none;stroke:#000;stroke-miterlimit:10"></rect><rect x="338.24" y="308.76" width="7.11" height="6.67" style="fill:none;stroke:#000;stroke-miterlimit:10"></rect><rect x="348.67" y="308.76" width="7.11" height="6.67" style="fill:none;stroke:#000;stroke-miterlimit:10"></rect><rect x="359.1" y="308.76" width="7.11" height="6.67" style="fill:none;stroke:#000;stroke-miterlimit:10"></rect><rect x="369.53" y="308.76" width="7.11" height="6.67" style="fill:none;stroke:#000;stroke-miterlimit:10"></rect><rect x="338.24" y="319.33" width="7.11" height="6.67" style="fill:none;stroke:#000;stroke-miterlimit:10"></rect><rect x="348.67" y="319.33" width="7.11" height="6.67" style="fill:none;stroke:#000;stroke-miterlimit:10"></rect><rect x="359.1" y="319.33" width="7.11" height="6.67" style="fill:none;stroke:#000;stroke-miterlimit:10"></rect><rect x="369.53" y="319.33" width="7.11" height="6.67" style="fill:none;stroke:#000;stroke-miterlimit:10"></rect><line x1="258.69" y1="160.3" x2="258.69" y2="353.44" style="fill:none;stroke:#000;stroke-miterlimit:10"></line><line x1="265.75" y1="160.3" x2="265.75" y2="353.44" style="fill:none;stroke:#000;stroke-miterlimit:10"></line><line x1="272.8" y1="160.3" x2="272.8" y2="353.44" style="fill:none;stroke:#000;stroke-miterlimit:10"></line><line x1="279.85" y1="160.3" x2="279.85" y2="353.44" style="fill:none;stroke:#000;stroke-miterlimit:10"></line><line x1="286.91" y1="160.3" x2="286.91" y2="353.44" style="fill:none;stroke:#000;stroke-miterlimit:10"></line><line x1="293.96" y1="160.3" x2="293.96" y2="353.44" style="fill:none;stroke:#000;stroke-miterlimit:10"></line><line x1="301.01" y1="160.3" x2="301.01" y2="353.44" style="fill:none;stroke:#000;stroke-miterlimit:10"></line><line x1="308.07" y1="160.3" x2="308.07" y2="353.44" style="fill:none;stroke:#000;stroke-miterlimit:10"></line></g></g><g id="freepik--Character--inject-2"><path d="M260.4,244.72c-.79-1.86-33.08-35.93-33.08-35.93l-17.83,18.55,33.39,24.81a64.41,64.41,0,0,0-8,10.62c-2.56,4.47-12.11,19.7-16.34,27.06l0,.05c-.16.27-.3.53-.44.78l-.06.09c-.12.23-.24.44-.36.65l-.07.12-.28.53a1.09,1.09,0,0,0-.08.15l-.22.42a1.09,1.09,0,0,0-.08.15l-.16.33-.06.13a3.57,3.57,0,0,0-.14.34c-1.06,2.92,1.59,3.45,3.72,4.25s11.94,5.31,15.66,5.31,5,.53,5-1.6-7.43-6.1-8.23-7.43-4-7.43-4-7.43,25.75-26.29,27.61-29.21S261.2,246.58,260.4,244.72Z" style="fill:#d4d4d4;stroke:#263238;stroke-linecap:round;stroke-linejoin:round"></path><circle cx="178.37" cy="301.21" r="38.76" style="fill:#263238;stroke:#263238;stroke-linecap:round;stroke-linejoin:round"></circle><circle cx="178.37" cy="301.21" r="34.51" transform="translate(-45.48 32.07) rotate(-9.12)" style="fill:#fff;stroke:#263238;stroke-linecap:round;stroke-linejoin:round"></circle><circle cx="178.37" cy="301.21" r="32.92" style="fill:#fff;stroke:#263238;stroke-linecap:round;stroke-linejoin:round"></circle><circle cx="319.08" cy="301.21" r="38.76" style="fill:#263238;stroke:#263238;stroke-linecap:round;stroke-linejoin:round"></circle><circle cx="319.08" cy="301.21" r="34.51" transform="translate(-82.89 477.17) rotate(-66.99)" style="fill:#fff;stroke:#263238;stroke-linecap:round;stroke-linejoin:round"></circle><circle cx="319.08" cy="301.21" r="32.92" style="fill:#fff;stroke:#263238;stroke-linecap:round;stroke-linejoin:round"></circle><circle cx="319.51" cy="301.21" r="4.78" style="fill:none;stroke:#263238;stroke-linecap:round;stroke-linejoin:round"></circle><line x1="206.16" y1="230.41" x2="232.79" y2="304.93" style="fill:none;stroke:#263238;stroke-linecap:round;stroke-miterlimit:10;stroke-width:4px"></line><path d="M320.35,302.93c-9.3-9.81-33-74.33-37-85.4a2.29,2.29,0,0,1,.8-2.63l9.06-6.62" style="fill:none;stroke:#263238;stroke-linecap:round;stroke-miterlimit:10;stroke-width:4px"></path><path d="M179.37,299.54s18.08-56.22,109.05-65.83" style="fill:none;stroke:#263238;stroke-linecap:round;stroke-miterlimit:10;stroke-width:4px"></path><path d="M246,303.49s14.69-3.39,24.58-19.49,17.8-30.8,24.58-34.47" style="fill:none;stroke:#263238;stroke-linecap:round;stroke-miterlimit:10;stroke-width:4px"></path><path d="M192.81,221.43s-.27,7.08,1.64,9.26,14.16,2.45,19.88,1.63,8.17-3,7.63-4.63-9.53-7.35-15.8-7.9S193.09,219,192.81,221.43Z" style="fill:#fff;stroke:#263238;stroke-linecap:round;stroke-linejoin:round"></path><path d="M284.75,197.55s21.19,2.82,25.42,18.36-9.88,22.89-18.64,22.89" style="fill:none;stroke:#263238;stroke-linecap:round;stroke-linejoin:round"></path><path d="M299.72,192.46s18.93,16.95,15,29.1S287.57,230.89,287,230" style="fill:none;stroke:#263238;stroke-linecap:round;stroke-linejoin:round"></path><polygon points="241.55 294.31 175.45 296.43 174.65 303.6 239.96 316.08 241.55 294.31" style="fill:#fff;stroke:#263238;stroke-linecap:round;stroke-linejoin:round"></polygon><circle cx="239.96" cy="305.2" r="10.89" style="fill:#fff;stroke:#263238;stroke-linecap:round;stroke-linejoin:round"></circle><path d="M259.89,299.82l-18.68,4.23a2.26,2.26,0,0,0-1.61,3h0a2.25,2.25,0,0,0,2.9,1.31L263,300.67Z" style="fill:#fff;stroke:#263238;stroke-linecap:round;stroke-miterlimit:10"></path><rect x="257.37" y="297.42" width="12.53" height="4.36" style="fill:#fff;stroke:#263238;stroke-linecap:round;stroke-miterlimit:10"></rect><circle cx="178.37" cy="301.21" r="6.9" style="fill:#fff;stroke:#263238;stroke-linecap:round;stroke-linejoin:round"></circle><path d="M251.13,180.6l18.36,7.91s8.48,1.69,9.33,2.82a16,16,0,0,1,2,3.68c.29.84-1.69.84-1.69.84s2.26,3.11,1.41,4-1.69,1.13-2.26,0a4.22,4.22,0,0,0-1.69-1.7l-5.37-1.69-3.11-4s-26-2.54-28.25-3.39-10.74-13-10.74-13l4.24-5.09Z" style="fill:#d4d4d4;stroke:#263238;stroke-linecap:round;stroke-linejoin:round"></path><path d="M280.58,290.65c-.53-.8-6.11-1.33-9.56-2.39a95.45,95.45,0,0,1-9.55-4s15.93-54.69,15.93-56.82c0-2.87-6.8-4.59-8.89-5.59a190.83,190.83,0,0,0-26.28-10.48c-4.13-1.26-8.48-1.82-12.46-3.54-3.56-1.54-4.24-3.68-4.24-3.68l-32.23-2.54-1.13,2.54s-.07.4-.17,1.06c-.4,2.67-1.31,9.51-.4,11.1,1.13,2,7.07,7.63,13.57,9.33,17.49,4.56,32.64,12,51.16,11.25-.51,2.46-3.09,15.16-3.09,19.23,0,4.51-1.33,22.56-1.33,22.56s-.8,13-1.59,16.46,0,2.66,2.12,2.66,21.5-1.6,24.16-2.66S281.11,291.45,280.58,290.65Z" style="fill:#263238;stroke:#263238;stroke-linecap:round;stroke-linejoin:round"></path><path d="M258.34,276.11c-.5,4.69-.88,8.11-.88,8.11" style="fill:none;stroke:#263238;stroke-linecap:round;stroke-linejoin:round"></path><path d="M250.76,224.51c8.24,3.33,13.66,5.83,13.66,5.83L260.36,233h7.24L265,235l2.32.87s-5.79,8.69-6.66,18c-.43,4.53-1.2,11.91-1.87,18.26" style="fill:none;stroke:#757575;stroke-linecap:round;stroke-linejoin:round"></path><path d="M216.53,211.6c2.87,1.15,9.57,3.76,20.66,7.74,4,1.44,7.82,2.89,11.22,4.23" style="fill:none;stroke:#757575;stroke-linecap:round;stroke-linejoin:round"></path><path d="M205.32,206.88s-6.66,4.64-4.34,4.35,10.43-4.06,9.85-2.32a23.89,23.89,0,0,1-2,4.05l6.08-2" style="fill:none;stroke:#757575;stroke-linecap:round;stroke-linejoin:round"></path><path d="M271,288.26a95.45,95.45,0,0,1-9.55-4s-2.61,3.79-10.09,1.74a91.68,91.68,0,0,1-1.06,9.14c-.8,3.45,0,2.66,2.12,2.66s21.5-1.6,24.16-2.66,4.51-3.71,4-4.51S274.47,289.32,271,288.26Z" style="fill:#fff;stroke:#263238;stroke-linecap:round;stroke-linejoin:round"></path><path d="M261.47,284.28l.44-1.54A3.13,3.13,0,0,0,261.47,284.28Z" style="fill:none;stroke:#263238;stroke-linecap:round;stroke-linejoin:round"></path><path d="M271,288.26a95.45,95.45,0,0,1-9.55-4c-.27,2.92-.27,4.51-.27,4.51l-10.12.58a56,56,0,0,1-.76,5.79c-.8,3.45,0,2.66,2.12,2.66s21.5-1.6,24.16-2.66,4.51-3.71,4-4.51S274.47,289.32,271,288.26Z" style="fill:#92E3A9;stroke:#263238;stroke-linecap:round;stroke-linejoin:round"></path><path d="M251.46,281.32l-.08,4.7s1.66,1.83,6.39.93,5-3.16,5-3.16l.67-5A15.2,15.2,0,0,1,251.46,281.32Z" style="fill:#616161;stroke:#263238;stroke-linecap:round;stroke-linejoin:round"></path><path d="M252.44,297.82c2.12,0,21.5-1.6,24.16-2.66,2.27-.91,4-3,4.06-4.06-8.59,4.06-30.34,4.06-30.34,4.06C249.52,298.61,250.32,297.82,252.44,297.82Z" style="fill:#fff;stroke:#263238;stroke-linecap:round;stroke-linejoin:round"></path><path d="M277.4,195.29s3.68-.28,5.65,1.69,3.11,7.91,6.22,10.46,6.5.56,9-2.83,4.06-7.16,3.21-8.86-15.25,1.13-15.25,1.13" style="fill:none;stroke:#263238;stroke-linecap:round;stroke-miterlimit:10;stroke-width:4px"></path><path d="M232.12,129.42s-3.79-1.44-9.23.88-12.54,8.6-15.69,15.34-6.43,21.54-7.39,27.23-3.58,14.49-4.45,17.76c-2.24,8.46-5.28,16.18-3.49,16.18s14.37-1.38,21.14,0,13.76,2.28,16,.49c.58-.48-.68-2-.25-4,1.16-5.41,3.52-14.31,3.69-15.31.23-1.38,9.53-17.18,12.39-24.58s1.85-21.89.8-25.3-8.93-8.16-9.71-8.29S232.12,129.42,232.12,129.42Z" style="fill:#92E3A9;stroke:#263238;stroke-linecap:round;stroke-linejoin:round"></path><path d="M243.6,135.58a49.63,49.63,0,0,1,1,9.18c0,4.76.84,11.65.84,11.65L248,160.6s3.17-11.72,1.9-19S243.6,135.58,243.6,135.58Z" style="fill:#263238;stroke:#263238;stroke-linecap:round;stroke-linejoin:round"></path><line x1="208.88" y1="161.17" x2="206.02" y2="162.27" style="fill:none;stroke:#263238;stroke-linecap:round;stroke-linejoin:round"></line><polyline points="207.65 155.95 223.76 155.5 212.32 159.86" style="fill:none;stroke:#263238;stroke-linecap:round;stroke-linejoin:round"></polyline><path d="M223.33,203.56c-3.65-1.1-8.89-2.62-12.91-3.53" style="fill:none;stroke:#263238;stroke-linecap:round;stroke-linejoin:round"></path><path d="M227.68,204.9l-2-.63" style="fill:none;stroke:#263238;stroke-linecap:round;stroke-linejoin:round"></path><path d="M209.76,197.82a64.38,64.38,0,0,1,10.84,2.88" style="fill:none;stroke:#263238;stroke-linecap:round;stroke-linejoin:round"></path><path d="M204.79,183.54c-.94.91-1.87,1.77-2.78,2.55" style="fill:none;stroke:#263238;stroke-linecap:round;stroke-linejoin:round"></path><path d="M222.37,162.41a197.48,197.48,0,0,1-14.31,17.77" style="fill:none;stroke:#263238;stroke-linecap:round;stroke-linejoin:round"></path><path d="M230.62,152.37S224,160,217.32,166s-22.18,19.63-22.18,19.63,20.28-7.91,31-19.63,11.72-16.16,11.72-16.16S233.15,149.2,230.62,152.37Z" style="fill:#263238;stroke:#263238;stroke-linecap:round;stroke-linejoin:round"></path><path d="M207.81,140.33a55.36,55.36,0,0,1-7.91,0c-4.12-.32-11.09-1-13.31,4.12s-1.58,6.65-2.21,11.4-5.87,6.4-4.28,8-.41,3.94-.41,3.94-2.83,7.72-1.88,12.47,12.27,7.28,14.8,7.6,3.48-1,7.29-8.87a101.55,101.55,0,0,0,4.75-12.35c.63-1.9,3.16-19,3.8-21.22S209.08,140,207.81,140.33Z" style="fill:#263238;stroke:#263238;stroke-linecap:round;stroke-linejoin:round"></path><path d="M183.91,165a42.07,42.07,0,0,0,7.26,1.14c4.58.38,9.16-2.67,8.77.76s-5,17.18-8.39,18.71-13.36-1.53-13.36-7.26S183.91,165,183.91,165Z" style="fill:#666;stroke:#263238;stroke-linecap:round;stroke-linejoin:round"></path><path d="M260.16,109.4l.39,2.66-1.09,3.17s1.51,6,1.64,6.89-4.35,2.63-4.35,2.63S255,132,253.17,132.8s-9.28-3-9.28-3l-2.34,14.3-13.83-14.49L230,117.48l-2.3-9.6Z" style="fill:#fff;stroke:#263238;stroke-linecap:round;stroke-linejoin:round"></path><path d="M247.53,109.79s.29,1.32-.45,2a7,7,0,0,1-2.2,1l-.66,2.43-1.86-.31-.32-6.4Z" style="fill:#263238;stroke:#263238;stroke-linecap:round;stroke-linejoin:round"></path><polygon points="260.55 112.06 249.04 109.16 260.03 108.21 260.55 112.06" style="fill:#263238;stroke:#263238;stroke-linecap:round;stroke-linejoin:round"></polygon><path d="M259.07,113a4.35,4.35,0,0,0-3.67-.62" style="fill:none;stroke:#263238;stroke-linecap:round;stroke-linejoin:round"></path><path d="M254.41,126.13s-3.44-.08-3.91-3.11" style="fill:none;stroke:#263238;stroke-linecap:round;stroke-linejoin:round"></path><path d="M257.3,115.71c-.17,1-.56,1.79-.87,1.74s-.42-.92-.25-1.93.56-1.79.87-1.74S257.47,114.69,257.3,115.71Z" style="fill:#263238"></path><path d="M260.88,108s1.07-9.7-1.25-12.7-15-6.08-16.51-5.64A21,21,0,0,0,240,90.91a74.4,74.4,0,0,0-8.88,3.94c-2.62,1.6-2.75,1.57-3.59,5s-.85,10.16-.85,10.16Z" style="fill:#92E3A9;stroke:#263238;stroke-linecap:round;stroke-linejoin:round"></path><path d="M238.55,107s22-1,26.11-.37,8.53.86,8.53.86-11.1,1.36-16.8,2.22-15.61.68-15.61.68Z" style="fill:#92E3A9;stroke:#263238;stroke-linecap:round;stroke-linejoin:round"></path><path d="M237,105.44a24.59,24.59,0,0,1,.32-7.86A28.31,28.31,0,0,1,240,90.91s-5.7,0-7.16,2.73.44,13.52.44,13.52l3.78.31L237,106Z" style="fill:#263238;stroke:#263238;stroke-linecap:round;stroke-linejoin:round"></path><path d="M242.89,115.1a8,8,0,1,1-5.88-9.66A8,8,0,0,1,242.89,115.1Z" style="fill:#263238;stroke:#263238;stroke-linecap:round;stroke-linejoin:round"></path><path d="M239.74,114.33a4.75,4.75,0,1,1-3.5-5.74A4.76,4.76,0,0,1,239.74,114.33Z" style="fill:#666;stroke:#263238;stroke-linecap:round;stroke-linejoin:round"></path><polygon points="243.89 129.85 240.12 128.17 242.48 137.59 243.89 129.85" style="fill:#263238;stroke:#263238;stroke-linecap:round;stroke-linejoin:round"></polygon><path d="M207.81,140.33s5-7.43,16.47-10.14c5.47-1.28,9.51,2.22,11.41,5.07s2.21,8.55,2.21,8.55S229.35,134,226.82,134s-16.75,5.23-19.62,11.64Z" style="fill:#263238;stroke:#263238;stroke-linecap:round;stroke-linejoin:round"></path><path d="M215.16,150.74S237.23,174.9,240,176.16s45.12,15.1,45.12,15.1a4,4,0,0,0,2.13,3.31,19.73,19.73,0,0,0,4.1,1.23s-.7,2.57.61,2.79,5.89,1.8,6.81,1.14,2.19-5,1.88-6.41-14.44-7-14.44-7l-35.56-20.75s-14.51-25.85-18.44-29.74-11.56-.05-11.56-.05" style="fill:#fff;stroke:#263238;stroke-linecap:round;stroke-linejoin:round"></path><path d="M215.16,150.74s6.7,7.34,13.18,14.14l17-8.47c-4.57-7.84-10.82-18.23-13.2-20.58-3.92-3.89-11.56-.05-11.56-.05" style="fill:#92E3A9;stroke:#263238;stroke-linecap:round;stroke-linejoin:round"></path><line x1="294.74" y1="194.75" x2="293.95" y2="199.47" style="fill:none;stroke:#263238;stroke-linecap:round;stroke-linejoin:round"></line><line x1="297.27" y1="194.1" x2="296.09" y2="199.56" style="fill:none;stroke:#263238;stroke-linecap:round;stroke-linejoin:round"></line><line x1="299.37" y1="194.45" x2="298.75" y2="199.73" style="fill:none;stroke:#263238;stroke-linecap:round;stroke-linejoin:round"></line></g><g id="freepik--World--inject-2"><path d="M490,500.58c-41.86-121-168.75-194-296.77-165.62A255.31,255.31,0,0,0,7.2,500.58Z" style="fill:#92E3A9;stroke:#263238;stroke-miterlimit:10"></path><path d="M48.45,448.62a243.31,243.31,0,0,0-22.33,40.9" style="fill:none;stroke:#263238;stroke-miterlimit:10"></path><polygon points="236.54 485.77 242.85 497.42 237.23 501.34 263.05 501.34 264.16 498.28 260.48 487.29 248.9 485.51 240.02 476.3 213.98 470.91 210.03 475.51 219.24 483.4 236.54 485.77" style="fill:#fff;stroke:#263238;stroke-miterlimit:10"></polygon><path d="M100.12,492.46l11.44,8.12h112.3l-1.66-12.24-6.38,2L210.49,486l-3.75-8.49-4.27.33-.27,10L196,490.44l-7.56-20.06L183,468.47l-9.08-1.71-8.42,6.84,14.34,8.62,4.6,9.53L159.58,480.5l-18.35-12.69-4.73-15.73-16.44-1.31-10.14,10.32a94.15,94.15,0,0,1-7.82,6.71c-2.7,1.84-13.69,5.52-13.69,5.52l-.13,10.59L74.8,487.53l2.63,6.25Z" style="fill:#fff;stroke:#263238;stroke-miterlimit:10"></path><path d="M433.53,463.77l-9-9.8-11.18-11.19L407,425.55l11.05-.59-.72-6L409.53,420l5.86-4.41,6.18-5.72L420.25,404l-9.2-7.9-4.35-12.4a255.7,255.7,0,0,0-308.49-5.92L114,384.4l-5.92,12.5-10.72,4.86L99.73,418l-4.34,2.83-4.47,7.82,3,10.53,10.32-1.05-1.9,11,10.06-2.23,12.3-25.72-.32-9.87,16.31-4.86,2.56-8L160,392.83l-.46-10.46,12.3-3.36s7.83-6.7,9.6-7.1,10.72.73,10.72.73l10.46,5.13L215,375l9.21-8.88,13.88-1.84s4.08,1.58,7,.92,10.92-6.77,10.92-6.77l19.53,6.84,8.29,3.75,2,8.88,9.14-.79,1.78-6,8.49,1.84.46,4.87L289,386.53,302,397.32l23.94,7.11,11.51,9.86,13.29-1.71,1.65-6.57,4.47-2.24-18-8.42-9.74.92,7.17-4.08-9.34-8.48,9.94-2.83,14.6,4.21,6.11,13.55,8.22,6.25,9.14,16,15.13,6.58L394.4,447,410,452.85l.85,6.64-.07,8.09,5.92,9.87,2.37,5.06,10.46-.46,2.5-11.11Z" style="fill:#fff;stroke:#263238;stroke-miterlimit:10"></path><path d="M431.5,423.84l7,.93L441,436l-7.77-1.38L438.6,467l-4.21,14.6,8.41,15.53,7.26,4.22h40.19A253.93,253.93,0,0,0,428,402.42l.76,3.4L427.88,416Z" style="fill:#fff;stroke:#263238;stroke-miterlimit:10"></path><polygon points="290.41 429.09 247.53 420.6 230.49 425 228.85 437.17 220.03 431.05 207.67 436.9 210.82 456.7 223.19 462.03 228.38 449.07 239.24 455.98 261.14 467.89 268.5 484.27 288.23 500.38 312.18 490.72 309.61 481.97 302.05 473.09 295.61 449.67 299.29 438.3 290.41 429.09" style="fill:#fff;stroke:#263238;stroke-miterlimit:10"></polygon><polygon points="325.27 435.01 315.87 434.61 309.62 442.83 317.57 459.08 325.27 457.37 325.27 435.01" style="fill:#fff;stroke:#263238;stroke-miterlimit:10"></polygon><polygon points="382.82 434.03 360.33 427.85 354.61 421.66 350.27 424.49 357.04 435.41 364.01 450.01 373.68 451.59 374.93 448.83 367.63 441.13 384.34 443.63 382.82 434.03" style="fill:#fff;stroke:#263238;stroke-miterlimit:10"></polygon></g></svg>